<svg xmlns="http://www.w3.org/2000/svg" fill="none" viewBox="0 0 180 36" height="36" width="180">
    <path fill="black" d="M11.3456 0H21.5003L28.7094 6.09779L24.1123 12.0433L18.9139 8.08587H13.8617L9.4773 11.5162L8.11257 16.4231L9.33204 21.2804L13.87 24.8607H18.7969L24.2056 21.0162L28.6161 27.108L21.2508 32.9466H11.3372L2.66783 26.0522L0 16.3375L2.88903 6.6724L11.3456 0Z" clip-rule="evenodd" fill-rule="evenodd"/>
    <path fill="black" d="M57.6064 8.81448C56.7794 8.62336 56.1627 7.87286 56.1627 6.97617V4.52508V2.06111C56.1627 0.92284 55.253 0 54.1309 0C53.8049 0 53.4876 0.0795424 53.2041 0.226843C52.9681 0.349103 52.7554 0.518867 52.5801 0.729139L49.4886 4.43191C48.9688 5.05426 48.0227 5.05426 47.5029 4.43191L44.4114 0.729139C44.0252 0.266614 43.4582 0 42.8606 0C41.7385 0 40.8288 0.92284 40.8288 2.06111V7.34994C40.6404 8.18882 39.9006 8.81448 39.0166 8.81448H36.6004H34.1715C33.0494 8.81448 32.1396 9.73732 32.1396 10.8756C32.1396 11.4817 32.4025 12.0569 32.8584 12.4488L36.5086 15.5848C37.1221 16.1121 37.1221 17.0718 36.5086 17.5991L32.8584 20.7352C32.4025 21.127 32.1396 21.7022 32.1396 22.3083C32.1396 23.4466 33.0494 24.3694 34.1715 24.3694H39.3851C40.2121 24.5606 40.8288 25.3111 40.8288 26.2078V28.6588V31.1228C40.8288 32.2611 41.7385 33.1839 42.8606 33.1839C43.4582 33.1839 44.0252 32.9173 44.4114 32.4548L47.5029 28.752C48.0227 28.1297 48.9688 28.1297 49.4886 28.752L52.5801 32.4548C52.824 32.7472 53.1406 32.9611 53.4912 33.079C53.6952 33.1478 53.9109 33.1839 54.1309 33.1839C55.253 33.1839 56.1627 32.2611 56.1627 31.1228V25.834C56.3511 24.9951 57.0909 24.3694 57.9749 24.3694H60.3911H62.82C63.9421 24.3694 64.8519 23.4466 64.8519 22.3083C64.8519 22.0697 64.8112 21.8359 64.7342 21.616C64.6152 21.2776 64.4097 20.9727 64.1331 20.7352L60.4829 17.5991C59.8694 17.0718 59.8694 16.1121 60.4829 15.5848L64.1331 12.4488C64.589 12.0569 64.8519 11.4817 64.8519 10.8756C64.8519 9.73732 63.9421 8.81448 62.82 8.81448H57.6064Z" clip-rule="evenodd" fill-rule="evenodd"/>
    <path fill="black" d="M84.4632 7.39363L79.0294 1.88284C75.0634 -2.1393 68.2822 0.709333 68.2822 6.3975V26.9672C68.2822 32.6554 75.0634 35.5041 79.0294 31.4819L84.4632 25.9711L89.897 31.4819C93.863 35.5041 100.644 32.6554 100.644 26.9673V6.39755C100.644 0.709374 93.863 -2.13927 89.897 1.88287L84.4632 7.39363Z" clip-rule="evenodd" fill-rule="evenodd"/>
    <path fill="black" d="M123.201 0H108.94C107.681 0 106.474 0.501706 105.584 1.39471C104.694 2.28734 104.194 3.49785 104.194 4.76003V6.07983C104.194 7.34322 104.655 8.51527 105.545 9.40878C106.435 10.3011 107.577 10.735 108.835 10.735C107.576 10.735 106.367 11.2368 105.477 12.1298C104.587 13.0225 104.087 14.2328 104.087 15.495V17.0761C104.087 18.3383 104.587 19.549 105.477 20.4416C107.014 21.9832 107.54 21.8361 108.82 21.8455C107.561 21.8455 106.354 22.3472 105.464 23.2402L105.405 23.2995C104.553 24.1541 104.074 25.3131 104.074 26.5216V28.1866C104.074 29.4488 104.574 30.6595 105.464 31.5521C106.354 32.4451 107.561 32.9466 108.82 32.9466H112.002L114.781 30.1578C114.781 28.3058 114.765 26.454 114.748 24.6022C114.732 22.7506 114.716 20.899 114.716 19.0473L117.495 21.8361H123.08L125.86 19.0473V13.5238L123.187 10.8416L125.98 8.05293V2.7888L123.201 0ZM117.432 10.7986L114.716 13.5238L114.781 10.7986H117.432Z" clip-rule="evenodd" fill-rule="evenodd"/>
    <path fill="black" d="M135.413 11.0635C138.442 11.0635 140.898 8.58683 140.898 5.53174C140.898 2.47664 138.442 0 135.413 0C132.383 0 129.927 2.47664 129.927 5.53174C129.927 8.58683 132.383 11.0635 135.413 11.0635Z"/>
    <path fill="black" d="M138.667 24.6276C138.667 23.1948 139.825 22.0334 141.254 22.0334H147.201V12.6476H138.273V19.0832C138.273 20.7057 136.974 22.0223 135.368 22.0334H129.41V33.2184H138.667V24.6276Z"/>
    <path fill="black" d="M150.632 0V21.7053H171.124V26.4089H164.999V35.2814H177.302L180 32.4867V19.987H172.77V0H150.632ZM161.701 14.9056C164.038 14.9056 165.933 13.0052 165.933 10.6609C165.933 8.31661 164.038 6.41618 161.701 6.41618C159.364 6.41618 157.469 8.31661 157.469 10.6609C157.469 13.0052 159.364 14.9056 161.701 14.9056Z" clip-rule="evenodd" fill-rule="evenodd"/>
</svg>