<svg
    xmlns="http://www.w3.org/2000/svg"
    width="36"
    height="50"
    fill="none"
    viewBox="0 0 36 50"
    className="figma-x2h7g6"
>
    <path
        fill="currentColor"
        stroke="currentColor"
        strokeLinejoin="round"
        d="M30.95 33.17a1.54 1.54 0 0 0-.25-.63.9.9 0 0 0-.36-.3c-.13-.05-.28-.06-.4-.05-.25.02-.5.12-.74.22-.52.22-1.14.38-1.71.4-1.15.05-2.28.08-3.42.1l-2.86.08c-.72.04-2.48-.02-2.78.63-.17.38.63.83 1.17.93.76.14 4.56.24 6.56.26l1.2-.04c-.69.7-5.56 4.66-7.56 6.02a11 11 0 0 1-5.72 1.72c-3.12.15-5.88-2.12-6.16-5.04-.2-1.9.18-3.74.78-5.6l1.06.11.6.06c.58.05 1.14.09 1.7.06 2.59-.13 5.3-1.5 7.45-3.47 2.15-1.96 3.77-4.53 4.15-7.08.2-1.28 0-2.3-.6-3-.62-.7-1.62-1-2.92-.96-3.34.1-6.17 1.37-8.25 3.97a46.87 46.87 0 0 0-2.54 3.62l-1.02 1.54c-.2.28-.37.58-.58.91l-.15.25a4.51 4.51 0 0 1-.8-3.4c.28-1.83.61-3.7 1.29-5.4 1.97-4.99 5.03-9.25 9.25-12.66a115.8 115.8 0 0 0 3.33-2.63c.53-.44 1.01-.95 1.45-1.48.06-.06.09-.15.1-.23.02-.08.03-.17.03-.25a.87.87 0 0 0-.13-.48.88.88 0 0 0-.4-.28 1.14 1.14 0 0 0-.47-.07 2.3 2.3 0 0 0-.94.43l-1.3.9c-1.2.84-2.4 1.67-3.55 2.6a32.04 32.04 0 0 0-10.21 14.5 18.3 18.3 0 0 0-.9 3.68c-.36 2.48-.1 4.91 1.7 6.92.17.2.25.39.28.56.02.18 0 .39-.07.66l-.2.8c-.32 1.3-.65 2.63-.75 3.97-.46 5.58 4.02 9.77 9.6 9.12 2.7-.32 5.18-1.24 7.36-2.85.26-.18.75-.57 1.3-1.03l.22-.18 2.01-1.72.22-.18c.2-.16.38-.33.63-.56l.06-.05-.12.55-.62 2.26c-.51 1.86-1.02 3.71-1.5 5.58l-.1.28-.04.13c-.04.15-.09.3-.1.48-.06.35 0 .71.3 1.08a.2.2 0 0 0 .2.06c.5-.08.81-.33 1.03-.63.19-.27.3-.58.4-.85 0-.04.02-.07.03-.1 1.6-4.5 3.2-9.03 4.76-13.57.06-.2.04-.45 0-.67Zm-15.5-11.82a8.06 8.06 0 0 1 4.86-1.59c.57-.03.89.08 1.05.25.15.16.21.45.08.98-.25 1.09-.6 2.2-1.18 3.11a13.09 13.09 0 0 1-5.18 4.7 7.45 7.45 0 0 1-5.36.55c1.59-3.09 3.1-5.93 5.73-8Z"
    ></path>
</svg>